<?xml version="1.0" standalone="no"?>
<!DOCTYPE svg PUBLIC "-//W3C//DTD SVG 20010904//EN"
 "http://www.w3.org/TR/2001/REC-SVG-20010904/DTD/svg10.dtd">
<svg version="1.0" xmlns="http://www.w3.org/2000/svg"
 width="1282.000000pt" height="1282.000000pt" viewBox="0 0 1282.000000 1282.000000"
 preserveAspectRatio="xMidYMid meet">
<metadata>
Created by potrace 1.11, written by Peter Selinger 2001-2013
</metadata>
<g transform="translate(0.000000,1282.000000) scale(0.100000,-0.100000)"
fill="#000000" stroke="none">
<path d="M6390 10510 c0 -9 -15 -24 -32 -33 -18 -9 -64 -34 -103 -55 -76 -42
-196 -107 -290 -157 -33 -18 -136 -74 -230 -125 -93 -51 -197 -107 -230 -125
-33 -18 -114 -61 -180 -97 -66 -36 -154 -83 -195 -105 -41 -22 -149 -81 -240
-130 -91 -50 -196 -107 -235 -128 -64 -34 -102 -55 -250 -135 -27 -15 -86 -47
-130 -70 -44 -23 -152 -82 -240 -130 -88 -48 -205 -111 -260 -141 -55 -29
-113 -60 -130 -70 -16 -10 -50 -28 -75 -42 -106 -56 -209 -112 -270 -146 -36
-20 -74 -41 -85 -46 -20 -11 -20 -20 -20 -1194 l0 -1183 -75 -35 c-41 -19 -91
-41 -110 -50 -72 -31 -407 -202 -1090 -556 -74 -38 -242 -124 -372 -191 l-238
-121 -2 -710 -3 -710 -45 -23 c-61 -32 -292 -153 -415 -217 -55 -29 -156 -82
-225 -117 -537 -279 -602 -314 -602 -323 0 -4 29 -23 64 -42 35 -19 97 -54
138 -77 87 -50 153 -87 230 -129 30 -17 67 -39 82 -49 16 -11 28 -16 28 -12 0
4 8 0 18 -8 14 -12 104 -64 337 -192 11 -6 22 -13 25 -16 3 -3 19 -12 35 -20
17 -8 59 -31 94 -52 34 -21 65 -38 68 -38 2 0 46 -25 98 -55 51 -30 96 -55
100 -55 4 0 19 -8 33 -19 15 -10 54 -33 87 -50 33 -18 76 -41 95 -53 40 -23
249 -141 330 -186 30 -16 84 -46 118 -66 35 -20 68 -36 73 -36 5 0 9 -4 9 -10
0 -5 5 -10 10 -10 6 0 92 -47 193 -103 100 -57 209 -119 242 -137 33 -18 74
-41 90 -51 17 -10 51 -29 76 -42 25 -14 63 -35 85 -48 21 -12 59 -33 84 -47
25 -14 108 -61 185 -105 77 -44 145 -80 150 -80 6 0 120 61 255 135 135 74
274 151 310 170 109 59 224 122 245 135 11 7 30 17 42 22 12 6 82 44 155 84
73 41 160 89 193 107 111 60 190 103 265 145 41 23 107 59 145 80 133 72 270
147 325 178 30 16 78 42 105 57 159 86 394 216 420 232 17 10 39 22 50 27 11
5 82 43 159 85 76 43 171 95 211 116 40 21 112 61 161 88 186 103 222 122 232
122 5 0 60 -30 122 -66 62 -36 138 -79 169 -95 31 -17 63 -34 71 -39 37 -23
172 -100 175 -100 2 0 38 -20 79 -45 42 -25 78 -45 80 -45 3 0 50 -27 106 -60
56 -33 103 -60 104 -60 4 0 337 -187 356 -200 8 -6 24 -14 35 -20 11 -5 43
-23 70 -40 28 -16 66 -38 85 -48 19 -9 67 -36 105 -58 39 -23 90 -52 115 -66
53 -30 95 -54 193 -109 40 -23 92 -53 117 -67 25 -14 128 -72 230 -130 102
-58 201 -114 220 -125 19 -11 69 -38 110 -62 96 -54 157 -88 250 -140 171 -96
346 -197 354 -206 10 -9 68 20 321 163 83 46 425 239 760 427 336 188 632 356
658 372 27 16 50 29 52 29 2 0 26 13 52 28 26 16 77 44 113 64 36 20 81 45
100 57 19 11 42 24 50 28 8 4 40 21 70 38 30 18 80 46 110 62 51 28 132 74
485 273 136 76 178 100 338 189 54 30 94 58 90 62 -7 7 -354 206 -463 267 -25
13 -49 28 -55 32 -5 4 -32 20 -60 35 -102 57 -183 104 -303 173 -68 40 -125
72 -127 72 -2 0 -26 14 -54 31 -49 31 -51 34 -52 78 0 25 -1 372 -1 771 l-1
725 -136 203 c-75 111 -143 213 -151 226 -98 159 -536 796 -546 796 -20 0 -64
-22 -64 -32 0 -5 -4 -7 -9 -4 -13 8 -42 -4 -36 -14 3 -5 0 -12 -6 -16 -8 -4
-9 -3 -5 4 4 7 5 12 2 12 -2 0 -107 -47 -233 -104 -125 -57 -255 -116 -288
-131 -33 -15 -83 -38 -111 -51 -28 -13 -56 -24 -62 -24 -6 0 -12 -3 -14 -7 -1
-5 -84 -49 -183 -99 l-180 -92 0 1245 c0 685 -2 1248 -5 1252 -5 8 -144 89
-315 183 -55 31 -176 98 -270 150 -268 150 -260 145 -367 206 -18 10 -60 34
-93 52 -33 18 -80 44 -105 58 -25 14 -115 64 -200 112 -235 131 -253 141 -285
160 -16 9 -55 31 -85 47 -30 17 -71 39 -90 50 -19 11 -62 35 -95 53 -33 18
-69 39 -80 45 -11 7 -47 27 -80 45 -169 93 -211 116 -250 139 -16 10 -59 34
-95 53 -36 20 -89 50 -118 67 -29 17 -54 31 -56 31 -2 0 -41 22 -87 48 -46 27
-111 63 -144 81 -275 150 -385 216 -385 230 0 12 -10 16 -40 16 -30 0 -40 -4
-40 -15z m3900 -4054 c0 -2 -7 -7 -16 -10 -8 -3 -12 -2 -9 4 6 10 25 14 25 6z
m-180 -90 c0 -2 -8 -10 -17 -17 -16 -13 -17 -12 -4 4 13 16 21 21 21 13z
m-120 -70 c0 -2 -7 -7 -16 -10 -8 -3 -12 -2 -9 4 6 10 25 14 25 6z m-80 -41
c0 -2 -10 -9 -22 -15 -22 -11 -22 -10 -4 4 21 17 26 19 26 11z m-155 -85 c-3
-5 -12 -10 -18 -10 -7 0 -6 4 3 10 19 12 23 12 15 0z"/>
</g>
</svg>
